<svg width="1em" height="1em" viewBox="0 0 28 28" fill="none" xmlns="http://www.w3.org/2000/svg">
<path d="M16.0183 24.5C15.8131 24.8536 15.5187 25.1471 15.1645 25.3511C14.8103 25.5552 14.4087 25.6625 13.9999 25.6625C13.5911 25.6625 13.1895 25.5552 12.8353 25.3511C12.4811 25.1471 12.1867 24.8536 11.9816 24.5M25.6666 19.8333H2.33325C3.26151 19.8333 4.15175 19.4646 4.80813 18.8082C5.4645 18.1518 5.83325 17.2616 5.83325 16.3333V10.5C5.83325 8.33408 6.69367 6.25685 8.22521 4.7253C9.75676 3.19376 11.834 2.33334 13.9999 2.33334C16.1659 2.33334 18.2431 3.19376 19.7746 4.7253C21.3062 6.25685 22.1666 8.33408 22.1666 10.5V16.3333C22.1666 17.2616 22.5353 18.1518 23.1917 18.8082C23.8481 19.4646 24.7383 19.8333 25.6666 19.8333Z" stroke="currentColor" stroke-width="2" stroke-linecap="round" stroke-linejoin="round"/>
</svg>
