<svg width="52" height="52" viewBox="0 0 52 52" fill="none" xmlns="http://www.w3.org/2000/svg">
<rect width="52" height="52" fill="#143D34"/>
<path d="M24.0498 39.3871C24.6644 38.3355 24.9808 37.1362 24.9648 35.9181V34.2231V29.4461H27.1828V35.9231C27.1661 37.1227 27.473 38.3047 28.0714 39.3445C28.6697 40.3844 29.5373 41.2437 30.5828 41.8321C31.5688 42.3881 32.6771 42.6914 33.8088 42.7151H34.8408C36.3632 42.7456 37.8702 42.4051 39.2318 41.7231C40.4398 41.1018 41.4414 40.143 42.1148 38.9631C42.8204 37.6866 43.1767 36.2465 43.1478 34.7881C43.1775 33.3561 42.8281 31.9416 42.1348 30.6881C41.4633 29.523 40.4685 28.5775 39.2708 27.9661C37.8962 27.282 36.3758 26.9426 34.8408 26.9771H29.8408V15.8171C29.8333 15.0502 30.0317 14.2953 30.4153 13.6311C30.7989 12.967 31.3537 12.4179 32.0218 12.0411C32.6864 11.6646 33.4379 11.4684 34.2018 11.4721H34.8378C35.5758 11.438 36.3134 11.5507 37.0075 11.8037C37.7017 12.0567 38.3388 12.445 38.8818 12.9461C39.3969 13.4679 39.7986 14.0905 40.0615 14.7749C40.3245 15.4593 40.443 16.1907 40.4098 16.9231C40.4439 17.6466 40.3248 18.3692 40.06 19.0434C39.7953 19.7176 39.3911 20.3282 38.8738 20.8351C37.7673 21.8199 36.3193 22.3324 34.8398 22.2631H32.0668V24.7321H34.8398C36.3748 24.7666 37.8951 24.4271 39.2698 23.7431C40.4672 23.1322 41.4619 22.1875 42.1338 21.0231C42.8271 19.7697 43.1766 18.3552 43.1468 16.9231C43.1758 15.4645 42.8195 14.024 42.1138 12.7471C41.4402 11.5674 40.4387 10.6086 39.2308 9.98714C37.8686 9.30767 36.3616 8.96963 34.8398 9.00214H33.7938C32.6667 9.02724 31.5633 9.33057 30.5818 9.88514C29.5364 10.4737 28.669 11.3331 28.0706 12.3729C27.4723 13.4128 27.1653 14.5946 27.1818 15.7941V17.4881V22.2691H24.9648V15.7941C24.9815 14.5945 24.6745 13.4126 24.0762 12.3728C23.4778 11.3329 22.6103 10.4736 21.5648 9.88514C20.5796 9.32983 19.4724 9.02651 18.3418 9.00214H17.3098C15.7872 8.97067 14.2799 9.31009 12.9178 9.99114C11.7097 10.6125 10.7082 11.5713 10.0348 12.7511C9.32983 14.0269 8.97353 15.4659 9.00176 16.9231C8.97194 18.3552 9.32142 19.7697 10.0148 21.0231C10.6864 22.1887 11.6816 23.1346 12.8798 23.7461C14.2544 24.4301 15.7748 24.7695 17.3098 24.7351H22.3098V35.8961C22.3178 36.6626 22.1202 37.4172 21.7375 38.0814C21.3548 38.7455 20.801 39.2948 20.1338 39.6721C19.4686 40.049 18.7163 40.2452 17.9518 40.2411H17.3098C16.572 40.2751 15.8349 40.1623 15.141 39.9093C14.4472 39.6563 13.8105 39.2681 13.2678 38.7671C12.7521 38.245 12.3502 37.6217 12.0872 36.9365C11.8242 36.2514 11.7059 35.5192 11.7398 34.7861C11.7057 34.0627 11.8249 33.3401 12.0896 32.6659C12.3543 31.9918 12.7585 31.3811 13.2758 30.8741C14.3823 29.8895 15.8302 29.377 17.3098 29.4461H20.0818V26.9771H17.3098C15.7747 26.9427 14.2544 27.2822 12.8798 27.9661C11.6816 28.5777 10.6864 29.5236 10.0148 30.6891C9.32193 31.9417 8.97247 33.3551 9.00176 34.7861C8.97282 36.2448 9.32914 37.6852 10.0348 38.9621C10.7084 40.1424 11.7103 41.1016 12.9188 41.7231C14.2809 42.4042 15.7882 42.7436 17.3108 42.7121H18.3558C19.4828 42.687 20.5862 42.3837 21.5678 41.8291C22.5949 41.2477 23.4509 40.4062 24.0498 39.3891M34.8398 29.4481C36.3193 29.379 37.7672 29.8915 38.8738 30.8761C39.3911 31.3831 39.7953 31.9937 40.06 32.6679C40.3248 33.3421 40.4439 34.0646 40.4098 34.7881C40.4437 35.5212 40.3255 36.2534 40.0625 36.9386C39.7995 37.6238 39.3975 38.247 38.8818 38.7691C38.3391 39.2701 37.7023 39.6583 37.0085 39.9113C36.3147 40.1643 35.5775 40.2771 34.8398 40.2431H34.2078C33.4422 40.2475 32.6889 40.0513 32.0228 39.6741C31.3554 39.2969 30.8015 38.7476 30.4186 38.0835C30.0357 37.4193 29.8379 36.6647 29.8458 35.8981V29.4481H34.8398ZM27.1838 24.7411V26.9761H24.9658V24.7391L27.1838 24.7411ZM17.3098 22.2671C15.8302 22.3363 14.3823 21.8238 13.2758 20.8391C12.758 20.3317 12.3535 19.7204 12.0887 19.0455C11.824 18.3706 11.7051 17.6473 11.7398 16.9231C11.7064 16.1907 11.825 15.4593 12.0879 14.7749C12.3509 14.0905 12.7526 13.4678 13.2678 12.9461C13.8105 12.4453 14.4472 12.0571 15.141 11.8041C15.8349 11.5511 16.572 11.4382 17.3098 11.4721H17.9418C18.7073 11.4679 19.4606 11.664 20.1268 12.0411C20.7939 12.4185 21.3475 12.9679 21.7301 13.632C22.1126 14.2962 22.3101 15.0508 22.3018 15.8171V22.2671H17.3098Z" fill="#FEFEFE"/>
</svg>
