<svg width="132" height="35" viewBox="0 0 132 35" fill="none" xmlns="http://www.w3.org/2000/svg">
<path d="M48.2188 10.5807C46.2431 9.14473 43.9049 8.29018 41.4688 8.1137C38.4594 7.80013 35.4273 8.43544 32.7968 9.9307C30.9586 11.0632 29.4689 12.6813 28.4918 14.6067C27.4185 16.6906 26.8748 19.0068 26.9088 21.3507C26.875 23.7259 27.4182 26.0738 28.4918 28.1927C29.4702 30.1071 30.9605 31.7127 32.7968 32.8307C33.9126 33.4991 35.1341 33.9726 36.4088 34.2307C37.3877 34.4186 38.3832 34.5071 39.3799 34.4947C40.47 34.4946 41.5533 34.3242 42.5909 33.9897C43.3519 33.7573 44.0855 33.4431 44.7788 33.0527L43.7169 29.2007C42.5724 29.8654 41.2743 30.2198 39.9508 30.2287C38.8351 30.239 37.7296 30.0161 36.705 29.5744C35.6804 29.1327 34.7594 28.4819 34.0008 27.6637C32.558 25.8831 31.7984 23.6457 31.8588 21.3547C31.7564 19.0897 32.5463 16.8748 34.0588 15.1857C36.5818 12.4397 40.3099 12.7547 41.4669 12.9287C44.0559 13.3467 47.5258 15.1337 47.5258 21.6957V33.8957H52.4969V24.3847C52.4969 15.8757 51.4779 13.0847 48.2159 10.5847M18.0028 1.6557C15.9806 0.642454 13.7422 0.136564 11.4808 0.181701H9.98584C8.28215 0.218468 6.61412 0.67679 5.13084 1.5157C3.5546 2.40503 2.24663 3.70203 1.34405 5.27072C0.441474 6.83941 -0.0224799 8.62203 0.000837527 10.4317V33.8897H4.94884V23.7437H11.4808C13.76 23.7931 16.0169 23.2872 18.0568 22.2697C19.8602 21.3485 21.358 19.9244 22.3688 18.1697C23.4065 16.2984 23.9309 14.186 23.8888 12.0467C23.9302 9.86903 23.3963 7.71899 22.3408 5.8137C21.3273 4.03779 19.82 2.59436 18.0018 1.6587M16.8268 17.1927C15.3577 18.4912 13.4392 19.164 11.4808 19.0677H4.94884V10.4677C4.93743 9.47785 5.19199 8.5031 5.68593 7.64522C6.17986 6.78734 6.89507 6.0778 7.75685 5.5907C8.61727 5.10377 9.59021 4.85071 10.5788 4.8567H11.4788C12.4544 4.80958 13.4296 4.95633 14.3481 5.28846C15.2665 5.6206 16.1101 6.13152 16.8298 6.7917C17.5075 7.48202 18.0349 8.30505 18.3791 9.20907C18.7233 10.1131 18.8768 11.0785 18.8298 12.0447C18.8777 12.9952 18.7242 13.9451 18.3796 14.8323C18.0349 15.7194 17.5068 16.5238 16.8298 17.1927M65.8188 30.1927C63.2958 30.1927 61.9068 28.8607 61.9068 26.4437V12.9787H69.0578V9.0677H61.9068V0.181701H57.1219V27.1007C57.0683 28.0973 57.2243 29.0941 57.5796 30.0268C57.9349 30.9595 58.4817 31.8073 59.1848 32.5157C60.7732 33.9006 62.841 34.6082 64.9449 34.4867C66.0347 34.4883 67.1181 34.3196 68.1559 33.9867C68.9169 33.7542 69.6504 33.4401 70.3438 33.0497L69.2788 29.1887C68.2065 29.7571 67.0281 30.0976 65.8178 30.1887M128.589 5.3747C128.952 5.38344 129.313 5.31936 129.65 5.18625C129.988 5.05314 130.296 4.8537 130.555 4.5997C130.823 4.3533 131.039 4.0545 131.188 3.72171C131.336 3.38892 131.415 3.0292 131.42 2.6647C131.406 2.30998 131.32 1.96184 131.167 1.64142C131.014 1.32099 130.798 1.03496 130.531 0.800701C130.277 0.544262 129.974 0.34134 129.64 0.203932C129.307 0.0665243 128.949 -0.00258104 128.588 0.000701482C128.241 -0.00750804 127.895 0.0564168 127.574 0.188436C127.253 0.320456 126.962 0.517699 126.721 0.767702C126.475 1.01811 126.282 1.31525 126.153 1.64159C126.023 1.96792 125.961 2.31683 125.969 2.6677C125.963 3.02324 126.028 3.37635 126.161 3.70615C126.294 4.03595 126.492 4.33571 126.743 4.5877C126.979 4.83958 127.265 5.03981 127.582 5.17577C127.899 5.31174 128.242 5.38049 128.587 5.3777M88.3048 29.2497C87.1453 29.7272 85.8983 29.9551 84.6448 29.9187C83.2134 29.9173 81.8093 29.5267 80.5829 28.7887C79.2862 28.0217 78.2139 26.9273 77.4738 25.6151C76.7336 24.3029 76.3515 22.8192 76.3658 21.3127C76.341 19.7722 76.7203 18.252 77.4659 16.9037C78.1736 15.6378 79.2187 14.593 80.4848 13.8857C81.7561 13.1745 83.1903 12.8058 84.6469 12.8157C85.8337 12.785 87.0153 12.9822 88.1278 13.3967C89.0538 13.7958 89.9139 14.3329 90.6788 14.9897L93.8488 11.7737C91.3321 9.48767 88.0487 8.22999 84.6488 8.2497C82.3196 8.22504 80.0251 8.81523 77.9969 9.9607C75.9901 11.093 74.3251 12.7444 73.1763 14.7418C72.0276 16.7391 71.4374 19.0088 71.4678 21.3127C71.4426 23.6683 72.0423 25.9884 73.2058 28.0367C74.3327 30.0196 75.9796 31.6571 77.9688 32.7727C80.0054 33.9159 82.3055 34.5064 84.6408 34.4857C86.4642 34.5188 88.2758 34.188 89.9698 33.5127C91.5299 32.818 92.9411 31.8286 94.1259 30.5987L90.9149 27.4337C90.149 28.1781 89.2663 28.7919 88.3018 29.2507M126.152 33.8907H130.997V8.8547H126.158L126.152 33.8907ZM116.146 9.6257C114.714 8.71384 113.048 8.23723 111.351 8.2537C109.757 8.22053 108.182 8.60381 106.781 9.3657C105.488 10.0922 104.4 11.1351 103.62 12.3967L102.744 13.8047V0.186701H97.9588V33.8867H102.744V17.0817C103.366 15.9422 104.255 14.9709 105.336 14.2517C106.598 13.3078 108.136 12.805 109.712 12.8207C110.555 12.7946 111.394 12.9443 112.177 13.2604C112.959 13.5765 113.667 14.0521 114.255 14.6567C115.495 16.0477 116.132 17.8742 116.026 19.7347V33.8897H120.811V19.4617C120.854 17.4139 120.422 15.3839 119.55 13.5307C118.795 11.9421 117.617 10.5925 116.145 9.6307" fill="#133028"/>
</svg>
