<svg width="35" height="34" viewBox="0 0 35 34" fill="none" xmlns="http://www.w3.org/2000/svg">
<path d="M15.048 30.566C15.6627 29.5143 15.979 28.315 15.963 27.097V25.402V20.625H18.181V27.102C18.1643 28.3016 18.4713 29.4835 19.0696 30.5234C19.6679 31.5632 20.5355 32.4226 21.581 33.011C22.567 33.5669 23.6753 33.8703 24.807 33.894H25.839C27.3615 33.9245 28.8685 33.584 30.23 32.902C31.438 32.2806 32.4396 31.3218 33.113 30.142C33.8186 28.8654 34.175 27.4253 34.146 25.967C34.1758 24.5349 33.8263 23.1204 33.133 21.867C32.4616 20.7019 31.4667 19.7564 30.269 19.145C28.8944 18.4609 27.374 18.1215 25.839 18.156H20.839V6.996C20.8315 6.22905 21.0299 5.47414 21.4135 4.80998C21.7972 4.14583 22.3519 3.59675 23.02 3.22C23.6846 2.84344 24.4361 2.64728 25.2 2.651H25.836C26.5741 2.61682 27.3116 2.72951 28.0058 2.98254C28.7 3.23556 29.337 3.62389 29.88 4.125C30.3951 4.64673 30.7968 5.26936 31.0597 5.95376C31.3227 6.63817 31.4413 7.36957 31.408 8.102C31.4422 8.82549 31.323 9.54804 31.0583 10.2222C30.7936 10.8964 30.3893 11.507 29.872 12.014C28.7655 12.9987 27.3176 13.5113 25.838 13.442H23.065V15.911H25.838C27.373 15.9454 28.8934 15.606 30.268 14.922C31.4654 14.3111 32.4602 13.3663 33.132 12.202C33.8253 10.9486 34.1748 9.53409 34.145 8.102C34.1741 6.64336 33.8178 5.20287 33.112 3.926C32.4385 2.7463 31.4369 1.7875 30.229 1.166C28.8668 0.486531 27.3599 0.148487 25.838 0.181H24.792C23.6649 0.206097 22.5615 0.509428 21.58 1.064C20.5346 1.65258 19.6672 2.51197 19.0689 3.55179C18.4706 4.59161 18.1635 5.77345 18.18 6.973V8.667V13.448H15.963V6.973C15.9797 5.7734 15.6727 4.59149 15.0744 3.55163C14.4761 2.51177 13.6085 1.65241 12.563 1.064C11.5778 0.508684 10.4707 0.205365 9.34 0.181H8.308C6.78545 0.149524 5.2781 0.488952 3.916 1.17C2.70797 1.79135 1.7064 2.75019 1.033 3.93C0.328063 5.20574 -0.0282336 6.64472 -1.31957e-06 8.102C-0.0298269 9.53409 0.319658 10.9486 1.013 12.202C1.68465 13.3676 2.67982 14.3134 3.878 14.925C5.25264 15.609 6.77299 15.9484 8.308 15.914H13.308V27.075C13.3161 27.8415 13.1185 28.5961 12.7358 29.2602C12.353 29.9243 11.7992 30.4737 11.132 30.851C10.4668 31.2279 9.71453 31.4241 8.95 31.42H8.308C7.57025 31.454 6.83309 31.3412 6.13925 31.0882C5.44542 30.8351 4.8087 30.4469 4.266 29.946C3.75036 29.4238 3.3484 28.8005 3.08543 28.1154C2.82246 27.4303 2.70417 26.6981 2.738 25.965C2.70389 25.2415 2.8231 24.519 3.08781 23.8448C3.35252 23.1706 3.75675 22.56 4.274 22.053C5.38053 21.0684 6.82843 20.5558 8.308 20.625H11.08V18.156H8.308C6.77298 18.1216 5.25263 18.461 3.878 19.145C2.67982 19.7566 1.68465 20.7024 1.013 21.868C0.320172 23.1205 -0.0292958 24.5339 -1.31957e-06 25.965C-0.0289395 27.4236 0.327379 28.8641 1.033 30.141C1.70661 31.3213 2.70853 32.2804 3.917 32.902C5.2791 33.583 6.78645 33.9225 8.309 33.891H9.354C10.4811 33.8659 11.5845 33.5626 12.566 33.008C13.5931 32.4266 14.4491 31.585 15.048 30.568M25.838 20.627C27.3176 20.5578 28.7655 21.0704 29.872 22.055C30.3893 22.562 30.7936 23.1726 31.0583 23.8468C31.323 24.521 31.4422 25.2435 31.408 25.967C31.442 26.7001 31.3237 27.4323 31.0607 28.1175C30.7978 28.8026 30.3957 29.4259 29.88 29.948C29.3373 30.4489 28.7006 30.8371 28.0067 31.0901C27.3129 31.3432 26.5757 31.456 25.838 31.422H25.206C24.4405 31.4263 23.6872 31.2301 23.021 30.853C22.3537 30.4757 21.7997 29.9264 21.4168 29.2623C21.0339 28.5982 20.8361 27.8435 20.844 27.077V20.627H25.838ZM18.182 15.92V18.155H15.964V15.918L18.182 15.92ZM8.308 13.446C6.82843 13.5152 5.38053 13.0026 4.274 12.018C3.75624 11.5105 3.3517 10.8993 3.08697 10.2244C2.82225 9.54944 2.70332 8.82615 2.738 8.102C2.70466 7.36956 2.8232 6.63815 3.08616 5.95373C3.34912 5.26931 3.75082 4.64669 4.266 4.125C4.80873 3.62414 5.44545 3.23595 6.13928 2.98293C6.83311 2.72991 7.57025 2.61709 8.308 2.651H8.94C9.70551 2.64673 10.4588 2.8429 11.125 3.22C11.7921 3.59736 12.3458 4.14674 12.7283 4.81088C13.1109 5.47502 13.3083 6.22961 13.3 6.996V13.446H8.308Z" fill="currentColor"/>
</svg>
